<svg width="36" height="36" viewBox="0 0 36 36" fill="none" xmlns="http://www.w3.org/2000/svg">
<rect x="0.5" y="0.5" width="35" height="35" rx="11.5" fill="white"/>
<rect x="0.5" y="0.5" width="35" height="35" rx="11.5" stroke="#EAECF0"/>
<path fill-rule="evenodd" clip-rule="evenodd" d="M21.9162 16.4164L22.7181 15.4065C23.0852 14.9299 23.2157 14.3789 23.0933 13.8179C22.9873 13.3079 22.6773 12.8229 22.2123 12.4551L21.0785 11.5437C20.0915 10.7494 18.8679 10.833 18.1663 11.7444L17.393 12.7134C17.3115 12.8171 17.3253 12.9659 17.4265 13.0495C17.6784 13.2554 18.1689 13.6567 18.7381 14.1222C19.7337 14.9366 20.9697 15.9476 21.5899 16.4541C21.6903 16.536 21.8355 16.5193 21.9162 16.4164ZM19.7716 23.4081H24.1611C24.5893 23.4081 24.9376 23.7651 24.9376 24.204C24.9376 24.6438 24.5893 25 24.1611 25H19.7716C19.3434 25 18.9951 24.6438 18.9951 24.204C18.9951 23.7651 19.3434 23.4081 19.7716 23.4081Z" fill="#CDCDD0"/>
<path fill-rule="evenodd" clip-rule="evenodd" d="M16.7133 14.0522L20.8849 17.4656C20.9855 17.5472 21.0027 17.697 20.9242 17.8013L15.9786 24.3267C15.6677 24.7298 15.2095 24.9579 14.7187 24.9663L12.0188 25C11.8748 25.0017 11.7488 24.9007 11.7161 24.7559L11.1025 22.0545C10.9962 21.558 11.1025 21.0447 11.4134 20.6491L16.3835 14.0926C16.4637 13.9874 16.6118 13.9689 16.7133 14.0522" fill="#040415"/>
</svg>
