<svg width="20" height="20" viewBox="0 0 20 20" fill="none" xmlns="http://www.w3.org/2000/svg">
<path fill-rule="evenodd" clip-rule="evenodd" d="M14.0703 4.2627H11.6177C11.0067 4.26673 10.4267 3.99495 10.0395 3.52325L9.23186 2.40668C8.85116 1.93084 8.2711 1.65778 7.66103 1.66723H5.92719C2.81518 1.66723 1.6667 3.49367 1.6667 6.59936V9.95646C1.66282 10.3256 18.3297 10.3252 18.3308 9.95646V8.98038C18.3456 5.8747 17.2268 4.2627 14.0703 4.2627Z" fill="#AFB4FF"/>
<path d="M14.0632 4.26172C15.1503 4.17772 16.2292 4.50526 17.0856 5.17871C17.1842 5.26229 17.2763 5.35379 17.36 5.45215C17.6266 5.76383 17.8325 6.12276 17.9675 6.50977C18.2329 7.30528 18.3561 8.1414 18.3307 8.97949V13.3574C18.3297 13.726 18.3029 14.0942 18.2497 14.459C18.1484 15.1029 17.9217 15.7212 17.5827 16.2783C17.4269 16.5474 17.2373 16.7957 17.0192 17.0176C16.032 17.9236 14.721 18.3951 13.3815 18.3262H6.60907C5.26738 18.3947 3.95405 17.9234 2.96356 17.0176C2.74814 16.7954 2.56138 16.5469 2.4079 16.2783C2.0709 15.7216 1.84888 15.1027 1.75555 14.459C1.69623 14.0948 1.66654 13.7264 1.66669 13.3574V8.97949C1.66655 8.61409 1.68666 8.249 1.72626 7.88574C1.74849 7.71567 1.80048 7.55233 1.80048 7.38965C1.8757 6.95114 2.01264 6.52504 2.2077 6.125C2.78571 4.89036 3.97167 4.26172 5.91278 4.26172H14.0632ZM5.80829 11.5752C5.42792 11.5754 5.11988 11.8831 5.11981 12.2627C5.11981 12.6424 5.42787 12.95 5.80829 12.9502H14.2106C14.3947 12.9582 14.5746 12.8926 14.7097 12.7676C14.8447 12.6426 14.9236 12.4688 14.9294 12.2852C14.9398 12.1238 14.8871 11.9647 14.7819 11.8418C14.6607 11.6767 14.4684 11.5776 14.2634 11.5752H5.80829Z" fill="white"/>
</svg>
