<svg width="149" height="149" viewBox="0 0 149 149" fill="none" xmlns="http://www.w3.org/2000/svg">
<rect x="62.3052" width="106" height="106" rx="36" transform="rotate(36 62.3052 0)" fill="#9333EA"/>
<rect x="89.3052" y="2" width="104" height="104" rx="36" transform="rotate(57 89.3052 2)" fill="#4B2142"/>
<rect x="24.3052" y="25" width="100" height="100" rx="36" fill="#FFF6F6"/>
<g clip-path="url(#clip0_57_416)">
<path d="M90.1921 66.2613C89.5337 65.5457 88.6244 65.1228 87.5897 65.1228H82.385V65.0577C82.385 64.2445 82.0714 63.4637 81.5384 62.9433C81.0054 62.3902 80.2843 62.0649 79.5004 62.0649H70.0942C69.279 62.0649 68.5579 62.3902 68.0249 62.9433C67.4919 63.4963 67.1783 64.2445 67.1783 65.0577V65.1228H62.0049C60.9703 65.1228 60.061 65.5457 59.4026 66.2613C58.7441 66.9445 58.3052 67.9204 58.3052 68.9613V85.1613C58.3052 86.2348 58.7128 87.1782 59.4026 87.8613C60.061 88.5445 61.0016 88.9999 62.0049 88.9999H87.5897C88.6244 88.9999 89.5337 88.577 90.1921 87.8613C90.8505 87.1782 91.2895 86.2023 91.2895 85.1613V68.9613C91.2895 67.8878 90.8819 66.9445 90.1921 66.2613ZM89.6591 85.1613H89.6277C89.6277 85.7469 89.4083 86.2674 89.032 86.6577C88.6558 87.0481 88.1541 87.2758 87.5897 87.2758H62.0049C61.4406 87.2758 60.9389 87.0481 60.5627 86.6577C60.1864 86.2674 59.9669 85.7469 59.9669 85.1613V68.9613C59.9669 68.3758 60.1864 67.8553 60.5627 67.4649C60.9389 67.0746 61.4406 66.8469 62.0049 66.8469H68.0562C68.5266 66.8469 68.9028 66.4565 68.9028 65.9686V65.0252C68.9028 64.6674 69.0282 64.3421 69.2477 64.1143C69.4672 63.8866 69.7807 63.7565 70.1256 63.7565H79.5004C79.8453 63.7565 80.1589 63.8866 80.3783 64.1143C80.5978 64.3421 80.7232 64.6674 80.7232 65.0252V65.9686C80.7232 66.4565 81.0995 66.8469 81.5698 66.8469H87.6211C88.1855 66.8469 88.6871 67.0746 89.0634 67.4649C89.4396 67.8553 89.6591 68.3758 89.6591 68.9613V85.1613Z" fill="#3A3A3A"/>
<path d="M74.7973 69.0588C72.6652 69.0588 70.7213 69.9697 69.3417 71.401C67.9308 72.8649 67.0842 74.8492 67.0842 77.0612C67.0842 79.2733 67.9621 81.2902 69.3417 82.7215C70.7526 84.1853 72.6652 85.0637 74.7973 85.0637C76.9294 85.0637 78.8733 84.1528 80.2529 82.7215C81.6638 81.2576 82.5104 79.2733 82.5104 77.0612C82.5104 74.8492 81.6324 72.8323 80.2529 71.401C78.8733 69.9697 76.9294 69.0588 74.7973 69.0588ZM79.0614 81.5179C77.964 82.6239 76.459 83.3396 74.7973 83.3396C73.1355 83.3396 71.6305 82.6239 70.5332 81.5179C69.4358 80.3793 68.7773 78.8179 68.7773 77.0938C68.7773 75.3697 69.4671 73.8082 70.5332 72.6697C71.6305 71.5311 73.1355 70.848 74.7973 70.848C76.459 70.848 77.964 71.5637 79.0614 72.6697C80.1588 73.8082 80.8172 75.3697 80.8172 77.0938C80.8486 78.8179 80.1588 80.3793 79.0614 81.5179Z" fill="#3A3A3A"/>
<path d="M85.9593 72.2143C86.8078 72.2143 87.4957 71.5007 87.4957 70.6203C87.4957 69.74 86.8078 69.0264 85.9593 69.0264C85.1108 69.0264 84.423 69.74 84.423 70.6203C84.423 71.5007 85.1108 72.2143 85.9593 72.2143Z" fill="#3A3A3A"/>
</g>
<defs>
<clipPath id="clip0_57_416">
<rect width="33" height="27" fill="white" transform="translate(58.3052 62)"/>
</clipPath>
</defs>
</svg>
