<svg width="36" height="36" viewBox="0 0 36 36" fill="none" xmlns="http://www.w3.org/2000/svg">
<rect x="0.5" y="0.5" width="35" height="35" rx="11.5" fill="white"/>
<rect x="0.5" y="0.5" width="35" height="35" rx="11.5" stroke="#EAECF0"/>
<path fill-rule="evenodd" clip-rule="evenodd" d="M18.7431 18.7083V23.257C18.7431 23.6673 18.4105 24 18.0002 24C17.59 24 17.2574 23.6673 17.2574 23.257V18.7083H12.7272C12.3445 18.6687 12.0537 18.3461 12.0537 17.9613C12.0537 17.5765 12.3445 17.2539 12.7272 17.2143H17.2494V12.6737C17.289 12.2909 17.6115 12 17.9963 12C18.381 12 18.7035 12.2909 18.7431 12.6737V17.2143H23.2733C23.656 17.2539 23.9468 17.5765 23.9468 17.9613C23.9468 18.3461 23.656 18.6687 23.2733 18.7083H18.7431Z" fill="#040415"/>
</svg>
