<svg width="24" height="24" viewBox="0 0 24 24" fill="none" xmlns="http://www.w3.org/2000/svg">
<path fill-rule="evenodd" clip-rule="evenodd" d="M2.97656 9.25687C2.98929 8.66987 3.03825 7.50487 3.13028 7.12987C3.60026 5.02087 5.19623 3.68087 7.47759 3.48987H16.3093C18.571 3.69087 20.1866 5.03987 20.6566 7.12987C20.7476 7.49487 20.7966 8.66887 20.8093 9.25687H2.97656Z" fill="#040415"/>
<path fill-rule="evenodd" clip-rule="evenodd" d="M8.23074 6.59C8.66155 6.59 8.98466 6.261 8.98466 5.82V2.771C8.98466 2.33 8.66155 2 8.23074 2C7.79992 2 7.47681 2.33 7.47681 2.771V5.82C7.47681 6.261 7.79992 6.59 8.23074 6.59ZM2.97314 16.87V9.257H20.8127V16.931C20.8127 20.07 18.8545 22 15.7213 22H8.05479C4.95097 22 2.97314 20.03 2.97314 16.87ZM7.88834 14.41C7.43794 14.431 7.06587 14.07 7.04629 13.611C7.04629 13.151 7.39878 12.771 7.84917 12.75C8.28978 12.75 8.65205 13.101 8.66184 13.55C8.68143 14.011 8.32894 14.391 7.88834 14.41ZM11.9125 14.41C11.4621 14.431 11.0901 14.07 11.0705 13.611C11.0705 13.151 11.423 12.771 11.8734 12.75C12.314 12.75 12.6762 13.101 12.686 13.55C12.7056 14.011 12.3531 14.391 11.9125 14.41ZM15.9073 18.09C15.457 18.08 15.0947 17.7 15.0947 17.24C15.0849 16.78 15.4472 16.401 15.8976 16.391H15.9073C16.3675 16.391 16.7396 16.771 16.7396 17.24C16.7396 17.71 16.3675 18.09 15.9073 18.09ZM11.0705 17.24C11.0901 17.7 11.4621 18.061 11.9125 18.04C12.3531 18.021 12.7056 17.641 12.686 17.181C12.6762 16.731 12.314 16.38 11.8734 16.38C11.423 16.401 11.0705 16.78 11.0705 17.24ZM7.0365 17.24C7.05608 17.7 7.42815 18.061 7.87855 18.04C8.31915 18.021 8.67163 17.641 8.65205 17.181C8.64226 16.731 8.27999 16.38 7.83938 16.38C7.38898 16.401 7.0365 16.78 7.0365 17.24ZM15.1045 13.601C15.1045 13.141 15.457 12.771 15.9073 12.761C16.348 12.761 16.7004 13.12 16.72 13.561C16.7298 14.021 16.3773 14.401 15.9367 14.41C15.4863 14.42 15.1143 14.07 15.1045 13.611V13.601ZM16.3089 5.82C16.3089 6.261 15.976 6.59 15.555 6.59C15.1241 6.59 14.801 6.261 14.801 5.82V2.771C14.801 2.33 15.1241 2 15.555 2C15.976 2 16.3089 2.33 16.3089 2.771V5.82Z" fill="#CDCDD0"/>
</svg>
