<svg width="36" height="36" viewBox="0 0 36 36" fill="none" xmlns="http://www.w3.org/2000/svg">
<rect x="0.5" y="0.5" width="35" height="35" rx="11.5" fill="white"/>
<rect x="0.5" y="0.5" width="35" height="35" rx="11.5" stroke="#EAECF0"/>
<path fill-rule="evenodd" clip-rule="evenodd" d="M13.3028 15.8482C14.5385 14.7007 16.188 14 17.9998 14C19.8115 14 21.461 14.7007 22.6967 15.8482L25.7402 10.2183C26.2806 9.21872 25.5635 8 24.4351 8H21.1483C20.4285 8 19.7652 8.39378 19.4156 9.02871L17.9997 11.6002L16.5839 9.02871C16.2343 8.39378 15.571 8 14.8511 8H11.5644C10.436 8 9.71895 9.21872 10.2593 10.2183L13.3028 15.8482Z" fill="#FEA800"/>
<path d="M24.9377 21C24.9377 24.866 21.8317 28 18.0001 28C14.1686 28 11.0625 24.866 11.0625 21C11.0625 17.134 14.1686 14 18.0001 14C21.8317 14 24.9377 17.134 24.9377 21Z" fill="#FFE6B6"/>
<path fill-rule="evenodd" clip-rule="evenodd" d="M18.0002 23C19.095 23 19.9824 22.1046 19.9824 21C19.9824 19.8954 19.095 19 18.0002 19C16.9055 19 16.0181 19.8954 16.0181 21C16.0181 22.1046 16.9055 23 18.0002 23Z" fill="#FEA800"/>
</svg>
