<svg width="36" height="36" viewBox="0 0 36 36" fill="none" xmlns="http://www.w3.org/2000/svg">
<rect width="36" height="36" fill="#F5F5F5"/>
<g clip-path="url(#clip0_0_1)">
<rect x="-317" y="-395" width="393" height="852" rx="48" fill="#F6F9FF"/>
<g filter="url(#filter0_d_0_1)">
<rect x="-293" y="-92" width="345" height="68" rx="16" fill="white" shape-rendering="crispEdges"/>
<rect x="-292.5" y="-91.5" width="344" height="67" rx="15.5" stroke="#EAECF0" shape-rendering="crispEdges"/>
</g>
<g filter="url(#filter1_d_0_1)">
<rect x="-293" y="-16" width="345" height="68" rx="16" fill="white" shape-rendering="crispEdges"/>
<rect x="-292.5" y="-15.5" width="344" height="67" rx="15.5" stroke="#EAECF0" shape-rendering="crispEdges"/>
<rect x="0.5" y="0.5" width="35" height="35" rx="11.5" fill="white"/>
<rect x="0.5" y="0.5" width="35" height="35" rx="11.5" stroke="#EAECF0"/>
</g>
<g filter="url(#filter2_d_0_1)">
<rect x="-293" y="60" width="345" height="68" rx="16" fill="white" shape-rendering="crispEdges"/>
<rect x="-292.5" y="60.5" width="344" height="67" rx="15.5" stroke="#EAECF0" shape-rendering="crispEdges"/>
</g>
<path d="M15.7813 27.8125C14.3871 27.8121 13.013 27.4809 11.7718 26.8462C10.5305 26.2114 9.45757 25.2913 8.64107 24.1613C7.82456 23.0313 7.2878 21.7237 7.07488 20.3459C6.86196 18.9681 6.97896 17.5595 7.41625 16.2358C7.85355 14.912 8.59867 13.7109 9.59041 12.7311C10.5821 11.7512 11.7922 11.0207 13.1211 10.5994C14.4501 10.1782 15.86 10.0782 17.2351 10.3078C18.6102 10.5374 19.9112 11.0899 21.0313 11.92C21.1812 12.0418 21.2783 12.2168 21.3024 12.4084C21.3265 12.6 21.2758 12.7936 21.1607 12.9487C21.0457 13.1039 20.8752 13.2087 20.6849 13.2413C20.4945 13.2739 20.2989 13.2318 20.1388 13.1238C18.8168 12.1423 17.2023 11.6354 15.5566 11.6851C13.9108 11.7348 12.3299 12.3382 11.0696 13.3978C9.80924 14.4573 8.94314 15.911 8.61135 17.5237C8.27955 19.1364 8.50146 20.814 9.24118 22.285C9.98091 23.756 11.1952 24.9344 12.6877 25.6298C14.1802 26.3252 15.8636 26.4968 17.4656 26.1168C19.0677 25.7369 20.4948 24.8277 21.5162 23.5362C22.5375 22.2448 23.0933 20.6465 23.0938 19C23.0927 18.6144 23.0613 18.2295 23 17.8488C22.9847 17.7503 22.989 17.6497 23.0126 17.5529C23.0362 17.4561 23.0786 17.3648 23.1375 17.2844C23.1963 17.2039 23.2704 17.1359 23.3556 17.0841C23.4407 17.0323 23.5353 16.9978 23.6338 16.9825C23.7323 16.9672 23.8328 16.9715 23.9296 16.9951C24.0265 17.0187 24.1177 17.0611 24.1981 17.12C24.2786 17.1788 24.3466 17.2529 24.3984 17.3381C24.4502 17.4232 24.4847 17.5178 24.5 17.6163C24.567 18.0744 24.5984 18.537 24.5938 19C24.5918 21.3366 23.6627 23.577 22.0104 25.2292C20.3582 26.8814 18.1179 27.8105 15.7813 27.8125Z" fill="#0074FF"/>
<path d="M16.7187 21.8126C16.5201 21.8118 16.33 21.7322 16.19 21.5914L12.6275 18.0289C12.5046 17.8854 12.4404 17.7008 12.4477 17.5121C12.455 17.3233 12.5332 17.1443 12.6668 17.0107C12.8004 16.8771 12.9794 16.7989 13.1682 16.7916C13.357 16.7843 13.5415 16.8485 13.685 16.9714L16.7187 20.0014L25.7525 10.9714C25.896 10.8485 26.0805 10.7843 26.2693 10.7916C26.458 10.7989 26.6371 10.8771 26.7707 11.0107C26.9042 11.1443 26.9825 11.3233 26.9898 11.5121C26.9971 11.7008 26.9329 11.8854 26.81 12.0289L17.2475 21.5914C17.1075 21.7322 16.9173 21.8118 16.7187 21.8126Z" fill="#FFB300"/>
</g>
<defs>
<filter id="filter0_d_0_1" x="-303" y="-134" width="481" height="204" filterUnits="userSpaceOnUse" color-interpolation-filters="sRGB">
<feFlood flood-opacity="0" result="BackgroundImageFix"/>
<feColorMatrix in="SourceAlpha" type="matrix" values="0 0 0 0 0 0 0 0 0 0 0 0 0 0 0 0 0 0 127 0" result="hardAlpha"/>
<feOffset dx="58" dy="26"/>
<feGaussianBlur stdDeviation="34"/>
<feComposite in2="hardAlpha" operator="out"/>
<feColorMatrix type="matrix" values="0 0 0 0 0.135417 0 0 0 0 0.173611 0 0 0 0 0.364583 0 0 0 0.06 0"/>
<feBlend mode="normal" in2="BackgroundImageFix" result="effect1_dropShadow_0_1"/>
<feBlend mode="normal" in="SourceGraphic" in2="effect1_dropShadow_0_1" result="shape"/>
</filter>
<filter id="filter1_d_0_1" x="-303" y="-58" width="481" height="204" filterUnits="userSpaceOnUse" color-interpolation-filters="sRGB">
<feFlood flood-opacity="0" result="BackgroundImageFix"/>
<feColorMatrix in="SourceAlpha" type="matrix" values="0 0 0 0 0 0 0 0 0 0 0 0 0 0 0 0 0 0 127 0" result="hardAlpha"/>
<feOffset dx="58" dy="26"/>
<feGaussianBlur stdDeviation="34"/>
<feComposite in2="hardAlpha" operator="out"/>
<feColorMatrix type="matrix" values="0 0 0 0 0.135417 0 0 0 0 0.173611 0 0 0 0 0.364583 0 0 0 0.06 0"/>
<feBlend mode="normal" in2="BackgroundImageFix" result="effect1_dropShadow_0_1"/>
<feBlend mode="normal" in="SourceGraphic" in2="effect1_dropShadow_0_1" result="shape"/>
</filter>
<filter id="filter2_d_0_1" x="-303" y="18" width="481" height="204" filterUnits="userSpaceOnUse" color-interpolation-filters="sRGB">
<feFlood flood-opacity="0" result="BackgroundImageFix"/>
<feColorMatrix in="SourceAlpha" type="matrix" values="0 0 0 0 0 0 0 0 0 0 0 0 0 0 0 0 0 0 127 0" result="hardAlpha"/>
<feOffset dx="58" dy="26"/>
<feGaussianBlur stdDeviation="34"/>
<feComposite in2="hardAlpha" operator="out"/>
<feColorMatrix type="matrix" values="0 0 0 0 0.135417 0 0 0 0 0.173611 0 0 0 0 0.364583 0 0 0 0.06 0"/>
<feBlend mode="normal" in2="BackgroundImageFix" result="effect1_dropShadow_0_1"/>
<feBlend mode="normal" in="SourceGraphic" in2="effect1_dropShadow_0_1" result="shape"/>
</filter>
<clipPath id="clip0_0_1">
<rect x="-317" y="-395" width="393" height="852" rx="48" fill="white"/>
</clipPath>
</defs>
</svg>
