<svg width="16" height="16" viewBox="0 0 16 16" fill="none" xmlns="http://www.w3.org/2000/svg">
<path fill-rule="evenodd" clip-rule="evenodd" d="M12.0876 6.01133C12.2568 6.01276 12.4073 6.01404 12.5391 6.01404C12.6874 6.01404 12.9042 6.01231 13.1192 6.0106C13.2028 6.00993 13.286 6.00927 13.3649 6.00871C13.5326 6.00804 13.6666 6.14471 13.6666 6.31404V11.668C13.6666 13.3247 12.3371 14.6667 10.6974 14.6667H5.4463C3.72673 14.6667 2.33325 13.2594 2.33325 11.5227V4.33937C2.33325 2.68404 3.66336 1.33337 5.309 1.33337H8.83528C9.00229 1.33337 9.13695 1.47071 9.13695 1.63937V3.78337C9.13695 5.00537 10.1324 6.00737 11.343 6.00737C11.6221 6.00737 11.8703 6.00948 12.0876 6.01133ZM10.1753 1.93424C10.1753 1.64691 10.5233 1.50424 10.7226 1.71157C11.1843 2.19121 11.8664 2.90084 12.4821 3.54131C12.8283 3.90143 13.1534 4.23969 13.4066 4.50291C13.6013 4.70557 13.4586 5.04091 13.1779 5.04157C12.6299 5.04291 11.9846 5.04157 11.5199 5.03624C10.7826 5.03624 10.1753 4.42957 10.1753 3.69224V1.93424Z" fill="white"/>
<path fill-rule="evenodd" clip-rule="evenodd" d="M5.98257 7.59179H8.23924C8.51324 7.59179 8.73591 7.36979 8.73591 7.09579C8.73591 6.82179 8.51324 6.59912 8.23924 6.59912H5.98257C5.70857 6.59912 5.48657 6.82179 5.48657 7.09579C5.48657 7.36979 5.70857 7.59179 5.98257 7.59179ZM5.98264 10.9213H9.61197C9.88597 10.9213 10.1086 10.6993 10.1086 10.4253C10.1086 10.1513 9.88597 9.92859 9.61197 9.92859H5.98264C5.70864 9.92859 5.48664 10.1513 5.48664 10.4253C5.48664 10.6993 5.70864 10.9213 5.98264 10.9213Z" fill="#3843FF"/>
</svg>
