<svg width="36" height="36" viewBox="0 0 36 36" fill="none" xmlns="http://www.w3.org/2000/svg">
<rect x="0.5" y="0.5" width="35" height="35" rx="11.5" fill="white"/>
<rect x="0.5" y="0.5" width="35" height="35" rx="11.5" stroke="#EAECF0"/>
<path d="M24.9377 14H11.0625V25C11.0625 26.6569 12.3937 28 14.0358 28H21.9645C23.6066 28 24.9377 26.6569 24.9377 25V14Z" fill="#CDCDD0"/>
<path d="M16.0179 18C15.4706 18 15.0269 18.4477 15.0269 19V23C15.0269 23.5523 15.4706 24 16.0179 24C16.5653 24 17.009 23.5523 17.009 23V19C17.009 18.4477 16.5653 18 16.0179 18Z" fill="#040415"/>
<path d="M19.9823 18C19.4349 18 18.9912 18.4477 18.9912 19V23C18.9912 23.5523 19.4349 24 19.9823 24C20.5297 24 20.9734 23.5523 20.9734 23V19C20.9734 18.4477 20.5297 18 19.9823 18Z" fill="#040415"/>
<path fill-rule="evenodd" clip-rule="evenodd" d="M14.0356 12V11C14.0356 9.34315 15.3668 8 17.0089 8H18.9911C20.6332 8 21.9644 9.34315 21.9644 11V12H24.9376C25.485 12 25.9287 12.4477 25.9287 13C25.9287 13.5523 25.485 14 24.9376 14H11.0624C10.515 14 10.0713 13.5523 10.0713 13C10.0713 12.4477 10.515 12 11.0624 12H14.0356ZM16.0178 11C16.0178 10.4477 16.4615 10 17.0089 10H18.9911C19.5385 10 19.9822 10.4477 19.9822 11V12H16.0178V11Z" fill="#040415"/>
</svg>
