<svg width="36" height="36" viewBox="0 0 36 36" fill="none" xmlns="http://www.w3.org/2000/svg">
<rect x="0.5" y="0.5" width="35" height="35" rx="11.5" fill="white"/>
<rect x="0.5" y="0.5" width="35" height="35" rx="11.5" stroke="#EAECF0"/>
<path fill-rule="evenodd" clip-rule="evenodd" d="M26.4179 10.8984C27.2416 10.8984 27.9111 11.5621 27.9111 12.3787C27.9111 13.1963 27.2416 13.86 26.4179 13.86H19.901C19.0762 13.86 18.4066 13.1963 18.4066 12.3787C18.4066 11.5621 19.0762 10.8984 19.901 10.8984H26.4179ZM9.58369 21.9581H16.1006C16.9254 21.9581 17.5949 22.6218 17.5949 23.4394C17.5949 24.2559 16.9254 24.9207 16.1006 24.9207H9.58369C8.75889 24.9207 8.08936 24.2559 8.08936 23.4394C8.08936 22.6218 8.75889 21.9581 9.58369 21.9581Z" fill="#CDCDD0"/>
<path fill-rule="evenodd" clip-rule="evenodd" d="M11.4976 15.7582C13.3806 15.7582 14.9058 14.2452 14.9058 12.3786C14.9058 10.513 13.3806 9 11.4976 9C9.61562 9 8.08936 10.513 8.08936 12.3786C8.08936 14.2452 9.61562 15.7582 11.4976 15.7582ZM24.5029 26.7778C26.386 26.7778 27.9111 25.2648 27.9111 23.3992C27.9111 21.5325 26.386 20.0196 24.5029 20.0196C22.621 20.0196 21.0947 21.5325 21.0947 23.3992C21.0947 25.2648 22.621 26.7778 24.5029 26.7778Z" fill="#040415"/>
</svg>
