<svg width="36" height="36" viewBox="0 0 36 36" fill="none" xmlns="http://www.w3.org/2000/svg">
<rect x="0.5" y="0.5" width="35" height="35" rx="11.5" fill="white"/>
<rect x="0.5" y="0.5" width="35" height="35" rx="11.5" stroke="#EAECF0"/>
<path fill-rule="evenodd" clip-rule="evenodd" d="M17.3465 26.289V17.811C17.3465 17.4188 17.662 17.1005 18.0507 17.1005C18.4394 17.1005 18.7549 17.4188 18.7549 17.811V26.289C18.7549 26.6812 18.4394 26.9995 18.0507 26.9995C17.662 26.9995 17.3465 26.6812 17.3465 26.289" fill="#3BA935"/>
<path fill-rule="evenodd" clip-rule="evenodd" d="M12.6511 17.811C12.6511 17.6783 12.6877 17.5476 12.7591 17.432L17.4546 9.9137C17.5842 9.70717 17.8086 9.58117 18.0509 9.58117C18.2931 9.58117 18.5175 9.70717 18.6471 9.9137L23.3427 17.432C23.4788 17.6509 23.4873 17.9275 23.3624 18.1539C23.2384 18.3813 23.0028 18.5215 22.7464 18.5215H13.3553C13.099 18.5215 12.8633 18.3813 12.7394 18.1539C12.6802 18.0469 12.6511 17.9284 12.6511 17.811" fill="#3BA935"/>
</svg>
