<svg width="48" height="48" viewBox="0 0 48 48" fill="none" xmlns="http://www.w3.org/2000/svg">
<rect x="0.5" y="0.5" width="47" height="47" rx="15.5" fill="white"/>
<rect x="0.5" y="0.5" width="47" height="47" rx="15.5" stroke="#EAECF0"/>
<path fill-rule="evenodd" clip-rule="evenodd" d="M23.9497 24.467C26.265 24.467 28.1215 22.5831 28.1215 20.2335C28.1215 17.8831 26.265 16 23.9497 16C21.6344 16 19.7779 17.8831 19.7779 20.2335C19.7779 22.5831 21.6344 24.467 23.9497 24.467ZM33.0072 21.2193C33.6062 18.8418 31.85 16.7066 29.6137 16.7066C29.3706 16.7066 29.1381 16.7336 28.9109 16.7795C28.8807 16.7867 28.847 16.802 28.8292 16.8291C28.8088 16.8633 28.8239 16.9092 28.8461 16.9389C29.5179 17.8953 29.9039 19.0597 29.9039 20.3097C29.9039 21.5074 29.5498 22.6241 28.9286 23.5508C28.8647 23.6463 28.9215 23.775 29.0342 23.7949C29.1904 23.8228 29.3501 23.8372 29.5134 23.8417C31.1419 23.8849 32.6034 22.8214 33.0072 21.2193ZM18.3864 16.7068C18.6295 16.7068 18.8629 16.733 19.0892 16.7798C19.1203 16.787 19.1531 16.8014 19.1709 16.8293C19.1922 16.8635 19.1762 16.9095 19.1549 16.9392C18.4831 17.8947 18.0962 19.0591 18.0962 20.31C18.0962 21.5077 18.4503 22.6235 19.0715 23.5511C19.1354 23.6465 19.0786 23.7753 18.9659 23.7951C18.8106 23.8221 18.6499 23.8374 18.4867 23.842C16.8582 23.8852 15.3966 22.8216 14.9938 21.2195C14.3939 18.8421 16.1501 16.7068 18.3864 16.7068Z" fill="#CDCDD0"/>
<path fill-rule="evenodd" clip-rule="evenodd" d="M34.7131 26.817C34.4149 26.1722 33.6952 25.73 32.601 25.513C32.0845 25.3851 30.6868 25.205 29.3868 25.2293C29.3672 25.232 29.3566 25.2455 29.3548 25.2545C29.3522 25.2671 29.3575 25.2887 29.3832 25.3022C29.984 25.6039 32.3064 26.916 32.0144 29.6834C32.002 29.8032 32.097 29.9068 32.215 29.8888C32.7865 29.8059 34.2569 29.4853 34.7131 28.4866C34.9651 27.9589 34.9651 27.3456 34.7131 26.817ZM23.9496 26.5399C20.5304 26.5399 17.6453 27.1037 17.6453 29.2794C17.6453 31.4561 20.549 32 23.9496 32C27.3689 32 30.2539 31.4363 30.2539 29.2605C30.2539 27.0839 27.3502 26.5399 23.9496 26.5399ZM13.2878 26.8167C13.586 26.1719 14.3048 25.7297 15.399 25.5127C15.9164 25.3848 17.3132 25.2047 18.6142 25.2299C18.6337 25.2317 18.6434 25.2452 18.6452 25.2542C18.6479 25.2677 18.6425 25.2884 18.6177 25.3029C18.016 25.6045 15.6936 26.9166 15.9856 29.6832C15.998 29.8038 15.904 29.9065 15.7859 29.8885C15.2144 29.8065 13.744 29.485 13.2878 28.4872C13.0349 27.9586 13.0349 27.3453 13.2878 26.8167Z" fill="#040415"/>
</svg>
