<svg width="24" height="24" viewBox="0 0 24 24" fill="none" xmlns="http://www.w3.org/2000/svg">
<path d="M21.5098 11.7344C21.5098 11.9785 21.4023 12.2031 21.207 12.3887L14.7227 18.873C14.5176 19.0586 14.3125 19.1367 14.0879 19.1367C13.5996 19.1367 13.2285 18.7852 13.2285 18.2969C13.2285 18.0723 13.3164 17.8379 13.4727 17.6816L15.6504 15.4551L18.9512 12.457L16.5781 12.6133H4.2344C3.7266 12.6133 3.375 12.2422 3.375 11.7344C3.375 11.2266 3.7266 10.8652 4.2344 10.8652H16.5781L18.9414 11.0117L15.6504 8.01367L13.4727 5.79688C13.3066 5.63086 13.2285 5.40625 13.2285 5.17188C13.2285 4.69336 13.5996 4.33203 14.0879 4.33203C14.3125 4.33203 14.5273 4.41992 14.7422 4.625L21.207 11.0801C21.4023 11.2754 21.5098 11.5 21.5098 11.7344Z" fill="white"/>
</svg>
