<svg width="64" height="64" viewBox="0 0 64 64" fill="none"
    xmlns="http://www.w3.org/2000/svg">

    <g>
        <!-- Bigger circle (used more space) -->
        <path
            d="M32 6C17.64 6 6 17.64 6 32C6 46.36 17.64 58 32 58C46.36 58 58 46.36 58 32C58 17.64 46.36 6 32 6Z"
            fill="url(#paint0_linear_665_1295)"
        />

        <!-- Bigger plus -->
        <path
            fill-rule="evenodd"
            clip-rule="evenodd"
            d="M32 20C33.6569 20 35 21.3431 35 23V29H41C42.6569 29 44 30.3431 44 32C44 33.6569 42.6569 35 41 35H35V41C35 42.6569 33.6569 44 32 44C30.3431 44 29 42.6569 29 41V35H23C21.3431 35 20 33.6569 20 32C20 30.3431 21.3431 29 23 29H29V23C29 21.3431 30.3431 20 32 20Z"
            fill="white"
        />
    </g>

    <defs>
        <!-- SAME gradient, 100% untouched -->
        <linearGradient id="paint0_linear_665_1295"
            x1="10" y1="12" x2="50" y2="52"
            gradientUnits="userSpaceOnUse">
            <stop stop-color="#6B73FF"/>
            <stop offset="1" stop-color="#000DFF"/>
        </linearGradient>
    </defs>

</svg>