<svg width="36" height="36" viewBox="0 0 36 36" fill="none" xmlns="http://www.w3.org/2000/svg">
<rect x="0.5" y="0.5" width="35" height="35" rx="11.5" fill="white"/>
<rect x="0.5" y="0.5" width="35" height="35" rx="11.5" stroke="#EAECF0"/>
<path fill-rule="evenodd" clip-rule="evenodd" d="M18.6535 9.71101V18.189C18.6535 18.5812 18.338 18.8995 17.9493 18.8995C17.5606 18.8995 17.2451 18.5812 17.2451 18.189V9.71101C17.2451 9.3188 17.5606 9.00049 17.9493 9.00049C18.338 9.00049 18.6535 9.3188 18.6535 9.71101Z" fill="#E3524F"/>
<path fill-rule="evenodd" clip-rule="evenodd" d="M23.3489 18.189C23.3489 18.3217 23.3123 18.4524 23.2409 18.568L18.5454 26.0863C18.4158 26.2928 18.1914 26.4188 17.9491 26.4188C17.7069 26.4188 17.4825 26.2928 17.3529 26.0863L12.6573 18.568C12.5212 18.3491 12.5127 18.0725 12.6376 17.8461C12.7616 17.6187 12.9972 17.4785 13.2536 17.4785H22.6447C22.901 17.4785 23.1367 17.6187 23.2606 17.8461C23.3198 17.9531 23.3489 18.0716 23.3489 18.189Z" fill="#E3524F"/>
</svg>
