<svg width="48" height="48" viewBox="0 0 48 48" fill="none" xmlns="http://www.w3.org/2000/svg">
<rect x="0.5" y="0.5" width="47" height="47" rx="15.5" fill="white"/>
<rect x="0.5" y="0.5" width="47" height="47" rx="15.5" stroke="#EAECF0"/>
<path fill-rule="evenodd" clip-rule="evenodd" d="M30.7873 31.9613C30.4997 31.9519 30.2261 31.8329 30.0215 31.6282L28.2678 29.568C27.8918 29.2224 27.8611 28.635 28.1989 28.2512V28.2512C28.357 28.0904 28.572 28 28.7962 28C29.0204 28 29.2354 28.0904 29.3935 28.2512L31.5991 30.0249C31.9168 30.3517 32.0148 30.8369 31.8494 31.2636C31.6839 31.6903 31.2859 31.9787 30.8333 32L30.7873 31.9613Z" fill="#040415"/>
<ellipse cx="23.0089" cy="23" rx="6.93762" ry="7" fill="#CDCDD0"/>
</svg>
