<svg width="48" height="48" viewBox="0 0 48 48" fill="none" xmlns="http://www.w3.org/2000/svg">
<rect x="0.5" y="0.5" width="47" height="47" rx="15.5" fill="white"/>
<rect x="0.5" y="0.5" width="47" height="47" rx="15.5" stroke="#EAECF0"/>
<path fill-rule="evenodd" clip-rule="evenodd" d="M33.1477 26.37C32.9553 26.07 32.6818 25.77 32.3273 25.58C32.0437 25.44 31.8614 25.21 31.6993 24.94C31.1828 24.08 31.4866 22.95 32.3475 22.44C33.3604 21.87 33.6845 20.6 33.0971 19.61L32.4184 18.43C31.8411 17.44 30.5751 17.09 29.5723 17.67C28.681 18.15 27.5365 17.83 27.02 16.98C26.8579 16.7 26.7667 16.4 26.787 16.1C26.8174 15.71 26.6958 15.34 26.5135 15.04C26.1388 14.42 25.4602 14 24.7107 14H23.2825C22.5432 14.02 21.8645 14.42 21.4898 15.04C21.2973 15.34 21.1859 15.71 21.2062 16.1C21.2264 16.4 21.1353 16.7 20.9732 16.98C20.4567 17.83 19.3122 18.15 18.431 17.67C17.4181 17.09 16.1622 17.44 15.5747 18.43L14.8961 19.61C14.3188 20.6 14.6429 21.87 15.6456 22.44C16.5066 22.95 16.8104 24.08 16.304 24.94C16.1318 25.21 15.9495 25.44 15.6659 25.58C15.3215 25.77 15.0177 26.07 14.8556 26.37C14.4809 26.99 14.5011 27.77 14.8759 28.42L15.5747 29.62C15.9495 30.26 16.6484 30.66 17.3776 30.66C17.722 30.66 18.1271 30.56 18.4512 30.36C18.7044 30.19 19.0083 30.13 19.3425 30.13C20.3453 30.13 21.1859 30.96 21.2062 31.95C21.2062 33.1 22.138 34 23.3129 34H24.6904C25.8552 34 26.787 33.1 26.787 31.95C26.8174 30.96 27.658 30.13 28.6608 30.13C28.9849 30.13 29.2887 30.19 29.5521 30.36C29.8762 30.56 30.2712 30.66 30.6257 30.66C31.3448 30.66 32.0437 30.26 32.4184 29.62L33.1274 28.42C33.4921 27.75 33.5225 26.99 33.1477 26.37" fill="#CDCDD0"/>
<path fill-rule="evenodd" clip-rule="evenodd" d="M24.0118 26.8302C22.4216 26.8302 21.1353 25.5802 21.1353 24.0102C21.1353 22.4402 22.4216 21.1802 24.0118 21.1802C25.6019 21.1802 26.8579 22.4402 26.8579 24.0102C26.8579 25.5802 25.6019 26.8302 24.0118 26.8302" fill="#040415"/>
</svg>
