<svg width="16" height="16" viewBox="0 0 16 16" fill="none" xmlns="http://www.w3.org/2000/svg">
<path fill-rule="evenodd" clip-rule="evenodd" d="M14.6666 7.99992C14.6666 11.6826 11.6819 14.6666 7.99992 14.6666C4.31792 14.6666 1.33325 11.6826 1.33325 7.99992C1.33325 4.31859 4.31792 1.33325 7.99992 1.33325C11.6819 1.33325 14.6666 4.31859 14.6666 7.99992Z" fill="white"/>
<path fill-rule="evenodd" clip-rule="evenodd" d="M10.3823 10.5429C10.295 10.5429 10.207 10.5203 10.1263 10.4729L7.50896 8.91161C7.35829 8.82094 7.26562 8.65761 7.26562 8.48161V5.11694C7.26562 4.84094 7.48963 4.61694 7.76562 4.61694C8.04163 4.61694 8.26562 4.84094 8.26562 5.11694V8.19761L10.639 9.61294C10.8756 9.75494 10.9536 10.0616 10.8123 10.2989C10.7183 10.4556 10.5523 10.5429 10.3823 10.5429Z" fill="#3843FF"/>
</svg>
